<?xml version="1.0" encoding="utf-8"?>
<!-- Generator: Adobe Illustrator 21.1.0, SVG Export Plug-In . SVG Version: 6.00 Build 0)  -->
<svg version="1.1" xmlns="http://www.w3.org/2000/svg" xmlns:xlink="http://www.w3.org/1999/xlink" x="0px" y="0px"
	 viewBox="0 0 100 100" style="enable-background:new 0 0 100 100;" xml:space="preserve">
<style type="text/css">
	.st0{fill:none;stroke:#000000;stroke-width:4;stroke-linecap:round;stroke-linejoin:round;stroke-miterlimit:10;}
	.st1{display:none;}
	.st2{display:inline;fill:none;stroke:#000000;stroke-width:4;stroke-linecap:round;stroke-linejoin:round;stroke-miterlimit:10;}
	
		.st3{display:inline;fill:#FFFFFF;stroke:#000000;stroke-width:4;stroke-linecap:round;stroke-linejoin:round;stroke-miterlimit:10;}
	.st4{display:inline;fill:none;stroke:#000000;stroke-width:4;stroke-miterlimit:10;}
</style>
<g id="Layer_1">
	<g>
		<line class="st0" x1="50.8" y1="94.3" x2="50.8" y2="5"/>
		<polyline class="st0" points="85.4,38.9 50.8,4.2 16.1,38.9 		"/>
	</g>
</g>
<g id="Layer_2" class="st1">
	<polyline class="st2" points="95.3,48 48.5,9.1 3.7,48 	"/>
	<polyline class="st2" points="15.4,51.9 15.4,86.9 83.6,86.9 83.6,51.9 	"/>
	<polyline class="st2" points="73.8,14.9 83.6,14.9 83.6,24.6 	"/>
</g>
<g id="Layer_3" class="st1">
	<polygon class="st2" points="7.4,74.5 50,74.5 74.6,94.7 74.6,74.5 92.6,74.5 92.6,16.3 7.4,16.3 	"/>
</g>
<g id="Layer_4" class="st1">
	<rect x="5.6" y="23.1" class="st2" width="88.6" height="58.1"/>
	<path class="st2" d="M5.6,41.4c0,0,39.5,32.2,88.6,0"/>
	<polyline class="st2" points="34,23.1 36.1,14.8 63.8,14.8 65.8,23.1 	"/>
	<rect x="46.1" y="50.8" class="st3" width="7.6" height="11.8"/>
</g>
<g id="Layer_5" class="st1">
	<rect x="14" y="6" class="st2" width="71" height="82"/>
	<line class="st2" x1="51" y1="24" x2="76" y2="24"/>
	<line class="st2" x1="26" y1="36.5" x2="76" y2="36.5"/>
	<line class="st2" x1="26" y1="49" x2="76" y2="49"/>
	<line class="st2" x1="26" y1="61.5" x2="76" y2="61.5"/>
	<line class="st2" x1="53" y1="74" x2="76" y2="74"/>
	<circle class="st2" cx="33.5" cy="20.5" r="6.9"/>
</g>
<g id="Layer_7" class="st1">
	<path class="st4" d="M15.2,86.7V66.3c0-8,6.5-14.5,14.5-14.5h41.5c8,0,14.5,6.5,14.5,14.5v20.4C85.8,94.7,15.2,94.7,15.2,86.7z"/>
	<circle class="st4" cx="51.6" cy="26.2" r="19.6"/>
</g>
<g id="Layer_6" class="st1">
	<path class="st2" d="M82.3,71.1L69.6,83.9L10.2,24.5c-1.1-1.1-1.1-3,0-4.2l8.6-8.6c1.1-1.1,3-1.1,4.2,0L82.3,71.1z"/>
	<polyline class="st2" points="70.7,85 89.3,89.7 83.5,72.3 	"/>
	<line class="st2" x1="18.2" y1="32.5" x2="31" y2="19.8"/>
</g>
</svg>
